<?xml version="1.0" standalone="no"?>
<!DOCTYPE svg PUBLIC "-//W3C//DTD SVG 20010904//EN"
 "http://www.w3.org/TR/2001/REC-SVG-20010904/DTD/svg10.dtd">
<svg version="1.0" xmlns="http://www.w3.org/2000/svg"
 width="300.000000pt" height="300.000000pt" viewBox="0 0 300.000000 300.000000"
 preserveAspectRatio="xMidYMid meet">
<metadata>
Created by potrace 1.10, written by Peter Selinger 2001-2011
</metadata>
<g transform="translate(0.000000,300.000000) scale(0.100000,-0.100000)"
fill="#FF0000" stroke="none">
<path d="M1498 1895 c-2 -151 0 -275 5 -275 4 0 7 124 7 275 0 151 -2 275 -5
275 -2 0 -6 -124 -7 -275z"/>
<path d="M902 1913 c-56 -2 -90 -8 -87 -13 4 -6 15 -10 25 -10 32 0 42 -36 43
-156 l2 -114 33 0 32 0 0 135 0 135 28 7 c52 14 175 9 212 -10 63 -31 86 -97
55 -156 -13 -27 -78 -73 -135 -99 -23 -10 -21 -11 20 -11 57 -1 135 41 167 88
45 66 23 154 -47 188 -37 19 -149 24 -348 16z"/>
<path d="M1650 1900 c0 -5 8 -10 19 -10 37 0 46 -28 50 -152 l3 -118 29 0 29
0 0 140 0 140 53 0 c103 -1 257 -19 286 -35 17 -8 37 -28 45 -43 15 -27 15
-26 16 31 l0 57 -265 0 c-170 0 -265 -4 -265 -10z"/>
<path d="M880 1524 c0 -45 0 -45 33 -42 28 3 32 7 33 33 2 38 -12 55 -42 55
-22 0 -24 -4 -24 -46z m55 -19 c0 -5 -10 -11 -22 -13 -16 -2 -23 2 -23 13 0
11 7 15 23 13 12 -2 22 -7 22 -13z"/>
<path d="M1012 1528 c-12 -23 -19 -44 -15 -47 3 -4 8 0 10 7 5 14 53 17 53 2
0 -5 4 -10 10 -10 8 0 -19 72 -32 86 -3 2 -15 -14 -26 -38z"/>
<path d="M1127 1563 c-4 -3 -7 -24 -7 -45 0 -35 2 -38 28 -38 32 0 46 9 55 33
12 32 -52 74 -76 50z m61 -37 c2 -10 -2 -22 -10 -27 -25 -17 -38 -9 -38 22 0
26 3 30 22 27 13 -2 24 -11 26 -22z"/>
<path d="M1264 1530 c1 -39 4 -45 25 -48 29 -4 41 12 41 58 0 41 -17 29 -22
-15 -5 -46 -32 -39 -39 10 l-7 40 2 -45z"/>
<path d="M1389 1568 c-6 -15 -3 -88 3 -88 4 0 8 7 8 16 0 15 2 15 25 0 28 -19
44 -21 27 -4 -7 7 -8 17 -2 29 12 21 -11 49 -41 49 -10 0 -19 -1 -20 -2z m51
-33 c0 -8 -9 -15 -20 -15 -11 0 -20 7 -20 15 0 8 9 15 20 15 11 0 20 -7 20
-15z"/>
<path d="M1579 1568 c-6 -18 -5 -88 2 -88 5 0 9 7 9 15 0 8 9 15 20 15 11 0
20 5 20 10 0 6 -9 10 -20 10 -11 0 -20 5 -20 10 0 6 11 10 25 10 14 0 25 5 25
10 0 8 -58 15 -61 8z"/>
<path d="M1692 1528 c-11 -24 -17 -45 -14 -48 3 -3 7 1 9 8 3 6 15 12 28 12
13 0 25 -6 28 -12 2 -7 7 -10 11 -7 6 5 -30 89 -39 89 -2 0 -13 -19 -23 -42z"/>
<path d="M1807 1564 c-2 -5 -4 -25 -3 -44 1 -30 5 -35 29 -38 45 -5 71 30 49
65 -10 16 -68 28 -75 17z m61 -38 c2 -10 -2 -22 -10 -27 -25 -17 -38 -9 -38
22 0 26 3 30 22 27 13 -2 24 -11 26 -22z"/>
<path d="M1944 1530 c1 -39 4 -45 25 -48 13 -2 28 2 32 10 11 17 11 81 0 74
-4 -3 -6 -16 -4 -29 5 -26 -22 -56 -37 -41 -5 5 -11 25 -13 44 -3 27 -4 25 -3
-10z"/>
<path d="M2072 1528 l-2 -48 33 1 c29 2 29 2 5 6 -24 4 -27 10 -31 46 l-4 42
-1 -47z"/>
<path d="M883 1334 c-2 -115 -8 -133 -44 -148 -28 -12 -21 -14 93 -22 205 -14
258 -11 320 19 80 39 124 114 116 197 -3 31 -7 35 -34 38 l-31 3 0 -58 c0 -94
-49 -160 -136 -184 -42 -11 -185 -7 -206 6 -7 4 -11 50 -11 121 l0 114 -32 0
-33 0 -2 -86z"/>
<path d="M1490 1175 c0 -157 4 -245 10 -245 6 0 10 88 10 245 0 157 -4 245
-10 245 -6 0 -10 -88 -10 -245z"/>
<path d="M1720 1343 c0 -105 -13 -149 -48 -161 -21 -8 -3 -10 78 -11 65 0 97
3 85 9 -40 15 -48 38 -53 140 l-5 100 -28 0 -29 0 0 -77z"/>
</g>
</svg>
